<svg width="285" height="111" xmlns="http://www.w3.org/2000/svg" xmlns:xlink="http://www.w3.org/1999/xlink" xml:space="preserve" overflow="hidden"><g transform="translate(-321 -281)"><g><g><g><g><path d="M67.1185 97.5269C63.0174 97.1268 58.9163 97.2268 54.8151 97.727 50.914 98.1271 47.113 99.0273 43.512 100.128 36.5101 102.328 30.2083 105.729 25.407 110.03 24.5068 110.831 23.7065 111.531 23.0063 112.331 21.906 113.431 20.9058 114.532 20.0055 115.832 19.2053 117.032 18.5051 118.233 17.9049 119.433 16.5046 122.334 15.8044 125.335 15.9044 128.335L15.9044 141.839C15.9044 146.04 16.8046 149.641 18.6051 152.842 20.9058 156.843 26.5073 161.845 29.4081 164.145 30.7085 165.146 31.8088 166.046 32.9091 166.946 33.6093 167.546 34.3095 168.046 35.0097 168.546 36.31 169.547 37.5103 170.547 38.9107 171.547 39.711 172.148 40.5112 172.748 41.4114 173.448 42.1116 173.948 43.0119 174.248 43.9121 174.248 44.8124 174.248 43.9121 174.248 43.9121 174.248 44.8124 174.248 45.7126 173.948 46.4128 173.348L48.1133 172.047C48.1133 172.047 48.3133 171.947 48.4134 171.847L52.6145 168.647 58.5161 164.145C61.517 161.845 67.1185 156.843 69.4192 152.842 71.2196 149.641 72.1199 146.04 72.1199 141.839L72.1199 112.331 72.1199 102.728 72.1199 98.027 67.3186 97.6269 67.1185 97.6269ZM29.9083 156.343C27.4076 154.042 24.9069 151.442 23.9066 149.641 22.7063 147.441 22.0061 144.84 22.0061 141.739L22.0061 138.338 29.8082 138.338 29.8082 156.243 29.9083 156.243ZM29.9083 122.334 29.9083 133.437 22.1061 133.437 22.1061 128.435C22.4062 126.135 22.7063 124.034 23.7065 122.034 24.6068 120.333 25.8071 118.633 27.4076 116.932 28.7079 115.732 30.1083 114.732 31.6087 114.031 30.5084 116.432 30.0083 119.333 30.0083 122.434ZM56.0155 102.228C56.0155 102.228 56.0155 102.028 56.2155 102.028L60.6167 102.028 60.6167 103.228 57.7159 103.228 57.7159 104.829 60.5167 104.829 60.5167 105.829C60.5167 105.829 60.5167 106.029 60.3166 106.029L57.7159 106.029 57.7159 107.43 60.6167 107.43C60.6167 107.43 60.9168 107.63 60.9168 107.73L60.9168 108.73 56.0155 108.73 56.0155 101.928 56.0155 102.228ZM50.3139 102.028 54.7151 102.028 54.7151 103.228 51.8143 103.228 51.8143 104.829 54.415 104.829 54.415 106.029 51.8143 106.029 51.8143 108.73 50.2139 108.73 50.2139 101.728 50.2139 102.028ZM35.2097 122.334C35.2097 121.033 35.2097 119.933 35.5098 118.833 37.0102 114.732 40.9113 111.731 45.5126 111.731 50.1138 111.731 52.0144 113.331 54.0149 116.032 52.9146 116.932 51.9143 117.833 51.0141 118.833 47.3131 122.934 45.0124 127.835 44.3122 133.437L35.3097 133.437 35.3097 122.334ZM54.415 159.044 44.3122 166.746C43.9121 167.046 43.412 167.046 43.1119 166.746 40.8113 165.046 39.0108 163.545 36.8102 161.845 36.31 161.445 35.7099 161.044 35.2097 160.544L35.2097 138.338 44.0121 138.338C44.3122 142.739 45.5126 146.841 47.7132 150.542 49.6137 153.642 52.0144 156.343 55.0152 158.444 54.8151 158.644 54.6151 158.844 54.415 158.944ZM65.5181 141.839C65.5181 144.94 64.9179 147.541 63.7176 149.741 62.9174 151.242 61.1169 153.242 59.1163 155.143 56.3155 153.342 54.0149 150.942 52.3144 148.041 50.614 145.14 49.6137 142.039 49.3136 138.538L65.5181 138.538 65.5181 141.939ZM65.5181 133.437 49.5137 133.437C50.2139 129.236 52.0144 125.435 54.8151 122.334 57.7159 119.133 61.4169 116.932 65.4181 115.832L65.4181 133.337 65.5181 133.337ZM67.3186 107.33C67.3186 108.73 66.6184 109.13 65.0179 109.13L61.8171 109.13 61.8171 102.328C61.8171 102.328 61.8171 102.128 62.0171 102.128L65.0179 102.128C66.5183 102.128 67.1185 102.728 67.1185 104.029 67.1185 105.329 66.9185 105.129 66.2183 105.529 66.9185 105.829 67.3186 106.429 67.3186 107.03L67.3186 107.53C67.3186 107.53 67.3186 107.33 67.3186 107.33ZM64.8179 105.029 63.5175 105.029 63.5175 103.429 64.8179 103.429C65.218 103.429 65.5181 103.429 65.5181 104.129L65.5181 104.429C65.5181 105.029 65.218 105.129 64.8179 105.129ZM65.8182 106.829 65.8182 107.23C65.8182 107.73 65.5181 107.73 65.0179 107.73L63.5175 107.73 63.5175 106.129 65.0179 106.129C65.5181 106.129 65.8182 106.329 65.8182 106.829Z" fill="#FFFFFF" fill-rule="nonzero" fill-opacity="1" transform="matrix(1.00149 0 0 1 322 204.249)"/><path d="M107.109 117.62 111.013 117.62 111.013 121.524 107.109 121.524Z" fill="#FFFFFF" fill-rule="nonzero" fill-opacity="1" transform="matrix(0.707633 -0.706582 0.707633 0.706582 269.407 316.279)"/><path d="M107.109 126.629 111.013 126.629 111.013 130.533 107.109 130.533Z" fill="#FFFFFF" fill-rule="nonzero" fill-opacity="1" transform="matrix(0.707633 -0.706582 0.707633 0.706582 262.996 318.98)"/><path d="M107.109 99.201 111.013 99.201 111.013 103.105 107.109 103.105Z" fill="#FFFFFF" fill-rule="nonzero" fill-opacity="1" transform="matrix(0.707633 -0.706582 0.707633 0.706582 282.33 310.878)"/><path d="M107.209 153.957 111.113 153.957 111.113 157.861 107.209 157.861Z" fill="#FFFFFF" fill-rule="nonzero" fill-opacity="1" transform="matrix(0.707633 -0.706582 0.707633 0.706582 243.662 326.982)"/><path d="M107.109 108.41 111.013 108.41 111.013 112.314 107.109 112.314Z" fill="#FFFFFF" fill-rule="nonzero" fill-opacity="1" transform="matrix(0.707633 -0.706582 0.707633 0.706582 275.919 313.579)"/><path d="M107.209 135.738 111.113 135.738 111.113 139.642 107.209 139.642Z" fill="#FFFFFF" fill-rule="nonzero" fill-opacity="1" transform="matrix(0.707633 -0.706582 0.707633 0.706582 256.585 321.681)"/><path d="M107.109 163.066 111.013 163.066 111.013 166.97 107.109 166.97Z" fill="#FFFFFF" fill-rule="nonzero" fill-opacity="1" transform="matrix(0.707633 -0.706582 0.707633 0.706582 237.151 329.583)"/><path d="M107.109 144.948 111.013 144.948 111.013 148.852 107.109 148.852Z" fill="#FFFFFF" fill-rule="nonzero" fill-opacity="1" transform="matrix(0.707633 -0.706582 0.707633 0.706582 250.073 324.282)"/><path d="M224.662 123.534C225.362 128.635 226.062 133.837 226.663 138.938 226.663 139.038 226.763 139.138 226.963 139.138 228.763 139.238 230.564 139.438 232.364 139.538 232.464 139.538 232.564 139.538 232.564 139.338 231.764 133.937 230.964 128.535 230.063 123.134 230.063 123.034 230.063 122.934 229.863 122.934 228.163 123.034 226.562 123.134 224.862 123.234 224.762 123.234 224.662 123.234 224.662 123.434Z" fill="#FFFFFF" fill-rule="nonzero" fill-opacity="1" transform="matrix(1.00149 0 0 1 322 204.249)"/><path d="M245.868 122.734 247.068 129.136C247.668 128.836 248.569 128.235 249.869 127.335 250.269 127.035 250.469 126.835 250.569 126.735L249.669 122.334C248.369 122.434 247.068 122.634 245.768 122.734Z" fill="#FFFFFF" fill-rule="nonzero" fill-opacity="1" transform="matrix(1.00149 0 0 1 322 204.249)"/><path d="M268.874 150.341 268.674 149.541 268.374 148.941C267.674 147.541 265.373 143.039 261.772 136.538L264.073 135.137 258.571 106.029 254.97 109.13C248.969 110.53 242.867 111.731 236.765 112.731L233.164 113.331 232.764 113.331C232.764 113.331 232.764 113.331 232.764 113.331 227.463 114.031 222.161 114.632 216.86 115.032L215.159 115.032C215.159 115.132 213.459 115.232 213.459 115.232 210.958 115.332 208.458 115.432 205.957 115.532L201.956 115.532C201.956 115.632 201.956 115.632 201.956 115.632 201.356 115.632 200.655 115.632 200.055 115.632 198.955 115.632 197.955 115.632 196.854 115.632 196.354 115.632 195.854 115.632 195.354 115.932L195.354 115.732C195.354 115.732 191.253 115.632 191.253 115.632 188.952 115.632 186.652 115.432 184.351 115.232 184.351 115.232 180.25 114.832 180.25 114.832 177.749 114.632 175.248 114.332 172.748 114.131L171.047 113.931 169.147 113.731C166.746 113.431 164.245 113.031 161.845 112.631L158.044 112.031C156.243 111.731 154.443 111.431 152.642 111.031L149.141 108.83 144.64 133.637 144.64 133.437C143.039 132.737 141.939 132.236 139.739 131.336L135.137 129.336 129.636 157.143 135.637 155.643C141.239 154.243 147.041 153.042 152.742 152.042L155.543 151.542C155.543 151.542 158.744 151.042 158.744 151.042 160.744 150.742 162.745 150.441 164.845 150.141 165.346 150.141 166.246 148.541 166.646 148.341L166.046 149.941 171.047 149.441C173.748 149.141 176.449 148.941 179.149 148.741L183.451 148.441C186.251 148.241 189.152 148.141 191.953 148.041L193.954 148.041C193.954 148.041 195.954 148.041 195.954 148.041 197.254 148.041 198.555 148.041 199.855 148.041 201.156 148.041 202.856 148.041 204.356 148.041L208.558 148.041C208.558 148.041 208.558 148.041 208.558 148.041 211.358 148.041 214.259 148.241 217.06 148.441L221.661 148.741 221.661 148.041C221.661 148.041 222.561 148.841 222.561 148.841L223.762 148.841C228.163 149.341 232.564 149.841 236.965 150.441L238.766 150.642 240.066 149.341C240.166 149.241 240.266 149.141 240.366 149.041L240.666 150.842 243.467 151.342C246.268 151.842 249.069 152.342 251.869 152.842L256.771 153.842C256.771 153.842 256.871 153.842 256.971 153.842L257.171 153.842C257.171 153.842 257.371 153.942 257.371 153.942 259.572 154.443 261.772 154.943 263.973 155.443L269.974 156.943 268.674 150.341ZM153.942 145.84 153.442 145.84C147.841 146.841 142.139 147.941 136.538 149.141L135.437 149.341 138.538 134.337 139.338 134.737C140.839 135.437 142.439 136.038 144.14 136.638L144.74 136.838 143.84 141.139C145.04 140.939 146.24 140.839 147.441 140.639 147.641 139.438 147.741 138.438 147.941 137.838L152.442 115.232 153.142 115.232C155.543 115.832 158.044 116.232 160.444 116.632L161.144 116.632C161.144 116.732 160.944 117.933 160.944 117.933L160.744 118.133C160.044 118.833 159.344 119.533 158.644 120.233L153.842 145.94ZM180.35 141.439 180.55 141.639 180.55 142.739C180.45 142.739 179.85 142.739 179.85 142.739 177.049 142.939 174.248 143.139 171.547 143.44L170.647 143.44C170.647 143.44 170.947 141.539 170.947 141.539 169.747 142.139 168.747 142.639 168.046 142.939 165.946 143.94 165.746 144.04 165.446 144.14 163.445 144.34 161.445 144.64 159.444 144.94L158.444 144.94C158.444 145.04 162.645 120.633 162.645 120.633 162.545 120.233 161.745 118.633 161.445 118.033L161.445 117.833C161.345 117.833 161.445 116.732 161.445 116.732L162.145 116.732C164.545 117.232 167.046 117.532 169.447 117.833L170.247 117.833C170.247 117.833 167.346 136.638 167.346 136.638 169.247 135.737 171.047 134.937 171.847 134.537 172.047 133.437 172.248 132.537 172.248 132.036L173.648 121.734C173.148 120.933 172.648 120.233 172.248 119.433L172.248 119.233C172.148 119.233 172.248 118.833 172.248 118.833L172.248 118.133C172.248 118.133 173.048 118.133 173.048 118.133 175.448 118.433 177.949 118.633 180.45 118.833L181.25 118.833C181.25 118.833 178.949 139.739 178.949 139.739 178.949 139.939 179.349 140.339 180.45 141.439ZM204.456 142.239C202.956 142.239 201.456 142.239 199.955 142.239 198.455 142.239 197.354 142.239 196.054 142.239L195.254 142.239C195.254 142.239 195.554 126.235 195.554 126.235 193.353 127.035 192.053 127.635 191.453 127.835L190.853 139.138C191.353 139.739 191.953 140.239 192.553 140.839L192.753 141.039 192.753 142.239C192.753 142.239 192.053 142.239 192.053 142.239 189.252 142.239 186.451 142.439 183.651 142.539L182.75 142.539C182.75 142.539 182.75 141.739 182.75 141.739 183.051 138.738 183.351 136.138 183.451 134.237L184.451 122.334C184.351 122.034 183.851 121.434 183.051 120.333L182.85 120.133 182.85 118.933C182.95 118.933 183.651 118.933 183.651 118.933 186.051 119.033 188.552 119.233 190.953 119.233L191.653 119.233C191.653 119.233 191.653 121.133 191.653 121.133 192.353 120.833 193.553 120.433 195.454 119.633 195.854 119.433 196.254 119.333 196.554 119.333 197.555 119.333 198.655 119.333 199.655 119.333 200.655 119.333 201.156 119.333 201.856 119.333L202.556 119.333C202.556 119.333 202.856 138.738 202.856 138.738 202.956 138.938 203.356 139.338 204.656 140.539L204.857 140.739 204.857 141.939C204.857 141.939 204.156 141.939 204.156 141.939ZM216.96 142.639C214.159 142.439 211.358 142.339 208.558 142.239L207.857 142.239C207.857 142.239 207.857 141.539 207.857 141.539 207.757 137.538 207.657 134.237 207.557 131.736L207.157 122.634C206.557 122.034 205.957 121.333 205.357 120.833L205.157 120.633 205.157 119.533C205.157 119.533 205.857 119.533 205.857 119.533 208.357 119.533 210.858 119.433 213.259 119.233L213.959 119.233C213.959 119.233 215.559 139.238 215.559 139.238 215.66 139.438 216.06 139.839 217.46 141.239L217.66 141.439 217.66 142.739C217.76 142.739 216.96 142.739 216.96 142.739ZM238.966 142.739C238.566 143.139 237.866 143.74 237.165 144.34L236.965 144.54 236.665 144.54C232.364 143.94 227.963 143.54 223.562 143.139L223.362 143.139C223.362 143.139 223.162 142.939 223.162 142.939 222.161 142.139 221.161 141.339 220.161 140.539L219.961 140.339 219.961 140.039C219.361 133.837 218.86 128.836 218.46 125.435L218.16 122.234C216.06 120.233 216.06 120.133 216.06 119.833L216.06 119.033C216.06 119.033 216.76 119.033 216.76 119.033 221.961 118.733 227.263 118.133 232.564 117.532 232.564 117.532 232.564 117.532 232.564 117.532 232.864 117.532 233.064 117.532 235.865 119.933L236.065 120.133 239.666 141.439C239.666 141.839 239.466 142.139 238.866 142.739ZM263.273 149.141C261.072 148.641 258.971 148.241 256.771 147.741 256.771 147.741 256.771 147.741 256.771 147.741 256.471 147.741 256.371 147.541 255.571 146.24 255.07 145.44 254.37 144.34 253.47 142.839 252.67 141.539 251.669 139.939 250.569 138.038 250.369 137.738 250.269 137.538 250.169 137.438 249.769 137.638 249.269 137.938 248.969 138.038L249.769 142.239C249.869 142.539 250.669 143.54 252.17 145.24L252.27 145.24C252.27 145.34 252.57 146.841 252.57 146.841L251.469 146.64C248.769 146.14 245.968 145.64 243.167 145.24L242.667 145.24C242.667 145.24 242.267 142.739 242.267 142.739 241.367 137.838 240.166 130.736 238.366 120.333 238.066 120.033 237.466 119.433 236.165 118.133L235.965 117.933 235.765 116.832 236.465 116.832C242.467 115.832 248.569 114.732 254.47 113.531L255.17 113.331 259.071 132.036 258.571 132.337C258.071 132.637 256.571 133.437 255.971 133.937 260.472 141.239 263.273 146.34 263.973 147.641 263.973 147.641 264.273 149.141 264.273 149.141L263.173 148.941Z" fill="#FFFFFF" fill-rule="nonzero" fill-opacity="1" transform="matrix(1.00149 0 0 1 322 204.249)"/></g></g></g></g></g></svg>